<!--?xml version="1.0" encoding="us-ascii" standalone="no"?--><svg xmlns="http://www.w3.org/2000/svg" xmlns:xlink="http://www.w3.org/1999/xlink" contentstyletype="text/css" height="1590px" preserveAspectRatio="none" style="width:433px;height:1590px;background:#FFFFFF;" version="1.1" viewBox="0 0 433 1590" width="433px" zoomAndPan="magnify"><defs></defs><g><ellipse cx="224.5" cy="20" fill="#222222" rx="10" ry="10" style="stroke:#222222;stroke-width:1.0;"></ellipse><rect fill="#F1F1F1" height="33.9688" rx="12.5" ry="12.5" style="stroke:#181818;stroke-width:0.5;" width="129" x="160" y="50"></rect><text fill="#000000" font-family="sans-serif" font-size="12" lengthAdjust="spacing" textLength="109" x="170" y="71.1387">User Registration</text><rect fill="#F1F1F1" height="33.9688" rx="12.5" ry="12.5" style="stroke:#181818;stroke-width:0.5;" width="185" x="132" y="103.9688"></rect><text fill="#000000" font-family="sans-serif" font-size="12" lengthAdjust="spacing" textLength="165" x="142" y="125.1074">Validate Registration Data</text><polygon fill="#F1F1F1" points="157,157.9375,292,157.9375,304,169.9375,292,181.9375,157,181.9375,145,169.9375,157,157.9375" style="stroke:#181818;stroke-width:0.5;"></polygon><text fill="#000000" font-family="sans-serif" font-size="11" lengthAdjust="spacing" textLength="135" x="157" y="173.7456">Valid Registration Data?</text><text fill="#000000" font-family="sans-serif" font-size="11" lengthAdjust="spacing" textLength="20" x="125" y="167.3433">yes</text><text fill="#000000" font-family="sans-serif" font-size="11" lengthAdjust="spacing" textLength="14" x="304" y="167.3433">no</text><rect fill="#F1F1F1" height="33.9688" rx="12.5" ry="12.5" style="stroke:#181818;stroke-width:0.5;" width="150" x="40.75" y="191.9375"></rect><text fill="#000000" font-family="sans-serif" font-size="12" lengthAdjust="spacing" textLength="130" x="50.75" y="213.0762">Create User Account</text><rect fill="#F1F1F1" height="33.9688" rx="12.5" ry="12.5" style="stroke:#181818;stroke-width:0.5;" width="121" x="55.25" y="245.9063"></rect><text fill="#000000" font-family="sans-serif" font-size="12" lengthAdjust="spacing" textLength="101" x="65.25" y="267.0449">Store User Data</text><rect fill="#F1F1F1" height="33.9688" rx="12.5" ry="12.5" style="stroke:#181818;stroke-width:0.5;" width="172" x="29.75" y="348.2773"></rect><text fill="#000000" font-family="sans-serif" font-size="12" lengthAdjust="spacing" textLength="152" x="39.75" y="369.416">Send Confirmation Email</text><polygon fill="#F1F1F1" points="67.75,299.875,163.75,299.875,175.75,311.875,163.75,323.875,67.75,323.875,55.75,311.875,67.75,299.875" style="stroke:#181818;stroke-width:0.5;"></polygon><text fill="#000000" font-family="sans-serif" font-size="11" lengthAdjust="spacing" textLength="20" x="119.75" y="334.0854">yes</text><text fill="#000000" font-family="sans-serif" font-size="11" lengthAdjust="spacing" textLength="96" x="67.75" y="315.6831">New Registration</text><polygon fill="#F1F1F1" points="115.75,402.2461,127.75,414.2461,115.75,426.2461,103.75,414.2461,115.75,402.2461" style="stroke:#181818;stroke-width:0.5;"></polygon><rect fill="#F1F1F1" height="33.9688" rx="12.5" ry="12.5" style="stroke:#181818;stroke-width:0.5;" width="200" x="15.75" y="446.2461"></rect><text fill="#000000" font-family="sans-serif" font-size="12" lengthAdjust="spacing" textLength="180" x="25.75" y="467.3848">Display Registration Success</text><rect fill="#F1F1F1" height="33.9688" rx="12.5" ry="12.5" style="stroke:#181818;stroke-width:0.5;" width="179" x="243.75" y="191.9375"></rect><text fill="#000000" font-family="sans-serif" font-size="12" lengthAdjust="spacing" textLength="159" x="253.75" y="213.0762">Display Registration Error</text><polygon fill="#F1F1F1" points="224.5,486.2148,236.5,498.2148,224.5,510.2148,212.5,498.2148,224.5,486.2148" style="stroke:#181818;stroke-width:0.5;"></polygon><ellipse cx="224.5" cy="541.2148" fill="none" rx="11" ry="11" style="stroke:#222222;stroke-width:1.0;"></ellipse><ellipse cx="224.5" cy="541.2148" fill="#222222" rx="6" ry="6" style="stroke:#111111;stroke-width:1.0;"></ellipse><ellipse cx="224.5" cy="572.2148" fill="#222222" rx="10" ry="10" style="stroke:#222222;stroke-width:1.0;"></ellipse><rect fill="#F1F1F1" height="33.9688" rx="12.5" ry="12.5" style="stroke:#181818;stroke-width:0.5;" width="86" x="181.5" y="602.2148"></rect><text fill="#000000" font-family="sans-serif" font-size="12" lengthAdjust="spacing" textLength="66" x="191.5" y="623.3535">User Login</text><rect fill="#F1F1F1" height="33.9688" rx="12.5" ry="12.5" style="stroke:#181818;stroke-width:0.5;" width="134" x="157.5" y="656.1836"></rect><text fill="#000000" font-family="sans-serif" font-size="12" lengthAdjust="spacing" textLength="114" x="167.5" y="677.3223">Authenticate User</text><polygon fill="#F1F1F1" points="195.5,710.1523,253.5,710.1523,265.5,722.1523,253.5,734.1523,195.5,734.1523,183.5,722.1523,195.5,710.1523" style="stroke:#181818;stroke-width:0.5;"></polygon><text fill="#000000" font-family="sans-serif" font-size="11" lengthAdjust="spacing" textLength="58" x="195.5" y="725.9604">Valid User</text><text fill="#000000" font-family="sans-serif" font-size="11" lengthAdjust="spacing" textLength="20" x="163.5" y="719.5581">yes</text><text fill="#000000" font-family="sans-serif" font-size="11" lengthAdjust="spacing" textLength="14" x="265.5" y="719.5581">no</text><rect fill="#F1F1F1" height="33.9688" rx="12.5" ry="12.5" style="stroke:#181818;stroke-width:0.5;" width="140" x="56.25" y="744.1523"></rect><text fill="#000000" font-family="sans-serif" font-size="12" lengthAdjust="spacing" textLength="120" x="66.25" y="765.291">Display User Profile</text><rect fill="#F1F1F1" height="33.9688" rx="12.5" ry="12.5" style="stroke:#181818;stroke-width:0.5;" width="198" x="27.25" y="798.1211"></rect><text fill="#000000" font-family="sans-serif" font-size="12" lengthAdjust="spacing" textLength="178" x="37.25" y="819.2598">Allow User to Update Details</text><rect fill="#F1F1F1" height="33.9688" rx="12.5" ry="12.5" style="stroke:#181818;stroke-width:0.5;" width="217" x="17.75" y="852.0898"></rect><text fill="#000000" font-family="sans-serif" font-size="12" lengthAdjust="spacing" textLength="197" x="27.75" y="873.2285">Allow User to Change Password</text><rect fill="#F1F1F1" height="33.9688" rx="12.5" ry="12.5" style="stroke:#181818;stroke-width:0.5;" width="95" x="78.75" y="906.0586"></rect><text fill="#000000" font-family="sans-serif" font-size="12" lengthAdjust="spacing" textLength="75" x="88.75" y="927.1973">Book Hostel</text><rect fill="#F1F1F1" height="33.9688" rx="12.5" ry="12.5" style="stroke:#181818;stroke-width:0.5;" width="197" x="27.75" y="960.0273"></rect><text fill="#000000" font-family="sans-serif" font-size="12" lengthAdjust="spacing" textLength="177" x="37.75" y="981.166">Display Admin Allotted Room</text><rect fill="#F1F1F1" height="33.9688" rx="12.5" ry="12.5" style="stroke:#181818;stroke-width:0.5;" width="136" x="254.75" y="744.1523"></rect><text fill="#000000" font-family="sans-serif" font-size="12" lengthAdjust="spacing" textLength="116" x="264.75" y="765.291">Display Login Error</text><polygon fill="#F1F1F1" points="224.5,999.9961,236.5,1011.9961,224.5,1023.9961,212.5,1011.9961,224.5,999.9961" style="stroke:#181818;stroke-width:0.5;"></polygon><ellipse cx="224.5" cy="1054.9961" fill="none" rx="11" ry="11" style="stroke:#222222;stroke-width:1.0;"></ellipse><ellipse cx="224.5" cy="1054.9961" fill="#222222" rx="6" ry="6" style="stroke:#111111;stroke-width:1.0;"></ellipse><ellipse cx="224.5" cy="1085.9961" fill="#222222" rx="10" ry="10" style="stroke:#222222;stroke-width:1.0;"></ellipse><rect fill="#F1F1F1" height="33.9688" rx="12.5" ry="12.5" style="stroke:#181818;stroke-width:0.5;" width="95" x="177" y="1115.9961"></rect><text fill="#000000" font-family="sans-serif" font-size="12" lengthAdjust="spacing" textLength="75" x="187" y="1137.1348">Admin Login</text><rect fill="#F1F1F1" height="33.9688" rx="12.5" ry="12.5" style="stroke:#181818;stroke-width:0.5;" width="143" x="153" y="1169.9648"></rect><text fill="#000000" font-family="sans-serif" font-size="12" lengthAdjust="spacing" textLength="123" x="163" y="1191.1035">Authenticate Admin</text><polygon fill="#F1F1F1" points="191.5,1223.9336,257.5,1223.9336,269.5,1235.9336,257.5,1247.9336,191.5,1247.9336,179.5,1235.9336,191.5,1223.9336" style="stroke:#181818;stroke-width:0.5;"></polygon><text fill="#000000" font-family="sans-serif" font-size="11" lengthAdjust="spacing" textLength="66" x="191.5" y="1239.7417">Valid Admin</text><text fill="#000000" font-family="sans-serif" font-size="11" lengthAdjust="spacing" textLength="20" x="159.5" y="1233.3394">yes</text><text fill="#000000" font-family="sans-serif" font-size="11" lengthAdjust="spacing" textLength="14" x="269.5" y="1233.3394">no</text><rect fill="#F1F1F1" height="33.9688" rx="12.5" ry="12.5" style="stroke:#181818;stroke-width:0.5;" width="149" x="49.5" y="1257.9336"></rect><text fill="#000000" font-family="sans-serif" font-size="12" lengthAdjust="spacing" textLength="129" x="59.5" y="1279.0723">Display Admin Profile</text><rect fill="#F1F1F1" height="33.9688" rx="12.5" ry="12.5" style="stroke:#181818;stroke-width:0.5;" width="226" x="11" y="1311.9023"></rect><text fill="#000000" font-family="sans-serif" font-size="12" lengthAdjust="spacing" textLength="206" x="21" y="1333.041">Allow Admin to Change Password</text><rect fill="#F1F1F1" height="33.9688" rx="12.5" ry="12.5" style="stroke:#181818;stroke-width:0.5;" width="125" x="61.5" y="1365.8711"></rect><text fill="#000000" font-family="sans-serif" font-size="12" lengthAdjust="spacing" textLength="105" x="71.5" y="1387.0098">Manage Courses</text><rect fill="#F1F1F1" height="33.9688" rx="12.5" ry="12.5" style="stroke:#181818;stroke-width:0.5;" width="116" x="66" y="1419.8398"></rect><text fill="#000000" font-family="sans-serif" font-size="12" lengthAdjust="spacing" textLength="96" x="76" y="1440.9785">Manage Rooms</text><rect fill="#F1F1F1" height="33.9688" rx="12.5" ry="12.5" style="stroke:#181818;stroke-width:0.5;" width="171" x="38.5" y="1473.8086"></rect><text fill="#000000" font-family="sans-serif" font-size="12" lengthAdjust="spacing" textLength="151" x="48.5" y="1494.9473">Access User Access Log</text><rect fill="#F1F1F1" height="33.9688" rx="12.5" ry="12.5" style="stroke:#181818;stroke-width:0.5;" width="136" x="257" y="1257.9336"></rect><text fill="#000000" font-family="sans-serif" font-size="12" lengthAdjust="spacing" textLength="116" x="267" y="1279.0723">Display Login Error</text><polygon fill="#F1F1F1" points="224.5,1513.7773,236.5,1525.7773,224.5,1537.7773,212.5,1525.7773,224.5,1513.7773" style="stroke:#181818;stroke-width:0.5;"></polygon><ellipse cx="224.5" cy="1568.7773" fill="none" rx="11" ry="11" style="stroke:#222222;stroke-width:1.0;"></ellipse><ellipse cx="224.5" cy="1568.7773" fill="#222222" rx="6" ry="6" style="stroke:#111111;stroke-width:1.0;"></ellipse><line style="stroke:#181818;stroke-width:1.0;" x1="224.5" x2="224.5" y1="30" y2="50"></line><polygon fill="#181818" points="220.5,40,224.5,50,228.5,40,224.5,44" style="stroke:#181818;stroke-width:1.0;"></polygon><line style="stroke:#181818;stroke-width:1.0;" x1="224.5" x2="224.5" y1="83.9688" y2="103.9688"></line><polygon fill="#181818" points="220.5,93.9688,224.5,103.9688,228.5,93.9688,224.5,97.9688" style="stroke:#181818;stroke-width:1.0;"></polygon><line style="stroke:#181818;stroke-width:1.0;" x1="115.75" x2="115.75" y1="225.9063" y2="245.9063"></line><polygon fill="#181818" points="111.75,235.9063,115.75,245.9063,119.75,235.9063,115.75,239.9063" style="stroke:#181818;stroke-width:1.0;"></polygon><line style="stroke:#181818;stroke-width:1.0;" x1="115.75" x2="115.75" y1="323.875" y2="348.2773"></line><polygon fill="#181818" points="111.75,338.2773,115.75,348.2773,119.75,338.2773,115.75,342.2773" style="stroke:#181818;stroke-width:1.0;"></polygon><line style="stroke:#181818;stroke-width:1.0;" x1="175.75" x2="211.75" y1="311.875" y2="311.875"></line><polygon fill="#181818" points="207.75,355.2617,211.75,365.2617,215.75,355.2617,211.75,359.2617" style="stroke:#181818;stroke-width:1.0;"></polygon><line style="stroke:#181818;stroke-width:1.0;" x1="211.75" x2="211.75" y1="311.875" y2="414.2461"></line><line style="stroke:#181818;stroke-width:1.0;" x1="211.75" x2="127.75" y1="414.2461" y2="414.2461"></line><polygon fill="#181818" points="137.75,410.2461,127.75,414.2461,137.75,418.2461,133.75,414.2461" style="stroke:#181818;stroke-width:1.0;"></polygon><line style="stroke:#181818;stroke-width:1.0;" x1="115.75" x2="115.75" y1="382.2461" y2="402.2461"></line><polygon fill="#181818" points="111.75,392.2461,115.75,402.2461,119.75,392.2461,115.75,396.2461" style="stroke:#181818;stroke-width:1.0;"></polygon><line style="stroke:#181818;stroke-width:1.0;" x1="115.75" x2="115.75" y1="279.875" y2="299.875"></line><polygon fill="#181818" points="111.75,289.875,115.75,299.875,119.75,289.875,115.75,293.875" style="stroke:#181818;stroke-width:1.0;"></polygon><line style="stroke:#181818;stroke-width:1.0;" x1="115.75" x2="115.75" y1="426.2461" y2="446.2461"></line><polygon fill="#181818" points="111.75,436.2461,115.75,446.2461,119.75,436.2461,115.75,440.2461" style="stroke:#181818;stroke-width:1.0;"></polygon><line style="stroke:#181818;stroke-width:1.0;" x1="145" x2="115.75" y1="169.9375" y2="169.9375"></line><line style="stroke:#181818;stroke-width:1.0;" x1="115.75" x2="115.75" y1="169.9375" y2="191.9375"></line><polygon fill="#181818" points="111.75,181.9375,115.75,191.9375,119.75,181.9375,115.75,185.9375" style="stroke:#181818;stroke-width:1.0;"></polygon><line style="stroke:#181818;stroke-width:1.0;" x1="304" x2="333.25" y1="169.9375" y2="169.9375"></line><line style="stroke:#181818;stroke-width:1.0;" x1="333.25" x2="333.25" y1="169.9375" y2="191.9375"></line><polygon fill="#181818" points="329.25,181.9375,333.25,191.9375,337.25,181.9375,333.25,185.9375" style="stroke:#181818;stroke-width:1.0;"></polygon><line style="stroke:#181818;stroke-width:1.0;" x1="115.75" x2="115.75" y1="480.2148" y2="498.2148"></line><line style="stroke:#181818;stroke-width:1.0;" x1="115.75" x2="212.5" y1="498.2148" y2="498.2148"></line><polygon fill="#181818" points="202.5,494.2148,212.5,498.2148,202.5,502.2148,206.5,498.2148" style="stroke:#181818;stroke-width:1.0;"></polygon><line style="stroke:#181818;stroke-width:1.0;" x1="333.25" x2="333.25" y1="225.9063" y2="498.2148"></line><line style="stroke:#181818;stroke-width:1.0;" x1="333.25" x2="236.5" y1="498.2148" y2="498.2148"></line><polygon fill="#181818" points="246.5,494.2148,236.5,498.2148,246.5,502.2148,242.5,498.2148" style="stroke:#181818;stroke-width:1.0;"></polygon><line style="stroke:#181818;stroke-width:1.0;" x1="224.5" x2="224.5" y1="137.9375" y2="157.9375"></line><polygon fill="#181818" points="220.5,147.9375,224.5,157.9375,228.5,147.9375,224.5,151.9375" style="stroke:#181818;stroke-width:1.0;"></polygon><line style="stroke:#181818;stroke-width:1.0;" x1="224.5" x2="224.5" y1="510.2148" y2="530.2148"></line><polygon fill="#181818" points="220.5,520.2148,224.5,530.2148,228.5,520.2148,224.5,524.2148" style="stroke:#181818;stroke-width:1.0;"></polygon><line style="stroke:#181818;stroke-width:1.0;" x1="224.5" x2="224.5" y1="582.2148" y2="602.2148"></line><polygon fill="#181818" points="220.5,592.2148,224.5,602.2148,228.5,592.2148,224.5,596.2148" style="stroke:#181818;stroke-width:1.0;"></polygon><line style="stroke:#181818;stroke-width:1.0;" x1="224.5" x2="224.5" y1="636.1836" y2="656.1836"></line><polygon fill="#181818" points="220.5,646.1836,224.5,656.1836,228.5,646.1836,224.5,650.1836" style="stroke:#181818;stroke-width:1.0;"></polygon><line style="stroke:#181818;stroke-width:1.0;" x1="126.25" x2="126.25" y1="778.1211" y2="798.1211"></line><polygon fill="#181818" points="122.25,788.1211,126.25,798.1211,130.25,788.1211,126.25,792.1211" style="stroke:#181818;stroke-width:1.0;"></polygon><line style="stroke:#181818;stroke-width:1.0;" x1="126.25" x2="126.25" y1="832.0898" y2="852.0898"></line><polygon fill="#181818" points="122.25,842.0898,126.25,852.0898,130.25,842.0898,126.25,846.0898" style="stroke:#181818;stroke-width:1.0;"></polygon><line style="stroke:#181818;stroke-width:1.0;" x1="126.25" x2="126.25" y1="886.0586" y2="906.0586"></line><polygon fill="#181818" points="122.25,896.0586,126.25,906.0586,130.25,896.0586,126.25,900.0586" style="stroke:#181818;stroke-width:1.0;"></polygon><line style="stroke:#181818;stroke-width:1.0;" x1="126.25" x2="126.25" y1="940.0273" y2="960.0273"></line><polygon fill="#181818" points="122.25,950.0273,126.25,960.0273,130.25,950.0273,126.25,954.0273" style="stroke:#181818;stroke-width:1.0;"></polygon><line style="stroke:#181818;stroke-width:1.0;" x1="183.5" x2="126.25" y1="722.1523" y2="722.1523"></line><line style="stroke:#181818;stroke-width:1.0;" x1="126.25" x2="126.25" y1="722.1523" y2="744.1523"></line><polygon fill="#181818" points="122.25,734.1523,126.25,744.1523,130.25,734.1523,126.25,738.1523" style="stroke:#181818;stroke-width:1.0;"></polygon><line style="stroke:#181818;stroke-width:1.0;" x1="265.5" x2="322.75" y1="722.1523" y2="722.1523"></line><line style="stroke:#181818;stroke-width:1.0;" x1="322.75" x2="322.75" y1="722.1523" y2="744.1523"></line><polygon fill="#181818" points="318.75,734.1523,322.75,744.1523,326.75,734.1523,322.75,738.1523" style="stroke:#181818;stroke-width:1.0;"></polygon><line style="stroke:#181818;stroke-width:1.0;" x1="126.25" x2="126.25" y1="993.9961" y2="1011.9961"></line><line style="stroke:#181818;stroke-width:1.0;" x1="126.25" x2="212.5" y1="1011.9961" y2="1011.9961"></line><polygon fill="#181818" points="202.5,1007.9961,212.5,1011.9961,202.5,1015.9961,206.5,1011.9961" style="stroke:#181818;stroke-width:1.0;"></polygon><line style="stroke:#181818;stroke-width:1.0;" x1="322.75" x2="322.75" y1="778.1211" y2="1011.9961"></line><line style="stroke:#181818;stroke-width:1.0;" x1="322.75" x2="236.5" y1="1011.9961" y2="1011.9961"></line><polygon fill="#181818" points="246.5,1007.9961,236.5,1011.9961,246.5,1015.9961,242.5,1011.9961" style="stroke:#181818;stroke-width:1.0;"></polygon><line style="stroke:#181818;stroke-width:1.0;" x1="224.5" x2="224.5" y1="690.1523" y2="710.1523"></line><polygon fill="#181818" points="220.5,700.1523,224.5,710.1523,228.5,700.1523,224.5,704.1523" style="stroke:#181818;stroke-width:1.0;"></polygon><line style="stroke:#181818;stroke-width:1.0;" x1="224.5" x2="224.5" y1="1023.9961" y2="1043.9961"></line><polygon fill="#181818" points="220.5,1033.9961,224.5,1043.9961,228.5,1033.9961,224.5,1037.9961" style="stroke:#181818;stroke-width:1.0;"></polygon><line style="stroke:#181818;stroke-width:1.0;" x1="224.5" x2="224.5" y1="1095.9961" y2="1115.9961"></line><polygon fill="#181818" points="220.5,1105.9961,224.5,1115.9961,228.5,1105.9961,224.5,1109.9961" style="stroke:#181818;stroke-width:1.0;"></polygon><line style="stroke:#181818;stroke-width:1.0;" x1="224.5" x2="224.5" y1="1149.9648" y2="1169.9648"></line><polygon fill="#181818" points="220.5,1159.9648,224.5,1169.9648,228.5,1159.9648,224.5,1163.9648" style="stroke:#181818;stroke-width:1.0;"></polygon><line style="stroke:#181818;stroke-width:1.0;" x1="124" x2="124" y1="1291.9023" y2="1311.9023"></line><polygon fill="#181818" points="120,1301.9023,124,1311.9023,128,1301.9023,124,1305.9023" style="stroke:#181818;stroke-width:1.0;"></polygon><line style="stroke:#181818;stroke-width:1.0;" x1="124" x2="124" y1="1345.8711" y2="1365.8711"></line><polygon fill="#181818" points="120,1355.8711,124,1365.8711,128,1355.8711,124,1359.8711" style="stroke:#181818;stroke-width:1.0;"></polygon><line style="stroke:#181818;stroke-width:1.0;" x1="124" x2="124" y1="1399.8398" y2="1419.8398"></line><polygon fill="#181818" points="120,1409.8398,124,1419.8398,128,1409.8398,124,1413.8398" style="stroke:#181818;stroke-width:1.0;"></polygon><line style="stroke:#181818;stroke-width:1.0;" x1="124" x2="124" y1="1453.8086" y2="1473.8086"></line><polygon fill="#181818" points="120,1463.8086,124,1473.8086,128,1463.8086,124,1467.8086" style="stroke:#181818;stroke-width:1.0;"></polygon><line style="stroke:#181818;stroke-width:1.0;" x1="179.5" x2="124" y1="1235.9336" y2="1235.9336"></line><line style="stroke:#181818;stroke-width:1.0;" x1="124" x2="124" y1="1235.9336" y2="1257.9336"></line><polygon fill="#181818" points="120,1247.9336,124,1257.9336,128,1247.9336,124,1251.9336" style="stroke:#181818;stroke-width:1.0;"></polygon><line style="stroke:#181818;stroke-width:1.0;" x1="269.5" x2="325" y1="1235.9336" y2="1235.9336"></line><line style="stroke:#181818;stroke-width:1.0;" x1="325" x2="325" y1="1235.9336" y2="1257.9336"></line><polygon fill="#181818" points="321,1247.9336,325,1257.9336,329,1247.9336,325,1251.9336" style="stroke:#181818;stroke-width:1.0;"></polygon><line style="stroke:#181818;stroke-width:1.0;" x1="124" x2="124" y1="1507.7773" y2="1525.7773"></line><line style="stroke:#181818;stroke-width:1.0;" x1="124" x2="212.5" y1="1525.7773" y2="1525.7773"></line><polygon fill="#181818" points="202.5,1521.7773,212.5,1525.7773,202.5,1529.7773,206.5,1525.7773" style="stroke:#181818;stroke-width:1.0;"></polygon><line style="stroke:#181818;stroke-width:1.0;" x1="325" x2="325" y1="1291.9023" y2="1525.7773"></line><line style="stroke:#181818;stroke-width:1.0;" x1="325" x2="236.5" y1="1525.7773" y2="1525.7773"></line><polygon fill="#181818" points="246.5,1521.7773,236.5,1525.7773,246.5,1529.7773,242.5,1525.7773" style="stroke:#181818;stroke-width:1.0;"></polygon><line style="stroke:#181818;stroke-width:1.0;" x1="224.5" x2="224.5" y1="1203.9336" y2="1223.9336"></line><polygon fill="#181818" points="220.5,1213.9336,224.5,1223.9336,228.5,1213.9336,224.5,1217.9336" style="stroke:#181818;stroke-width:1.0;"></polygon><line style="stroke:#181818;stroke-width:1.0;" x1="224.5" x2="224.5" y1="1537.7773" y2="1557.7773"></line><polygon fill="#181818" points="220.5,1547.7773,224.5,1557.7773,228.5,1547.7773,224.5,1551.7773" style="stroke:#181818;stroke-width:1.0;"></polygon><!--SRC=[bPB1ReCm38RlF8MFxIl0OM9GQOUjgbPrzmWCZHRYAZP2VVibeUsWBPDsGV3R-Up_3opAIP8U61ryOgjPd19DDalIBsLqhGHdEfHAL9Re1bQn_bXyMOCSqSBgZBnE0DB2OQ344NbLKMyb2_fUo5ta4GeGi5iSPj0xN3Y8jeQ2RADTDyxTT4gR0F0LtGHugVbar7c-thwlAcJE4ZICiBAqNcpTE4VEDqOU2vqI__oDwfrQ7JBA-x2SwEhgS1fD-BuFupeiKdQE6cqmff4RGyCe2y7X59ClKRmnVj9G79Lj4NQAUI1NnuvNeczu8nQCMTncvNMdBOJp8kXlZAXRY23Q-iFxI7fgFfQcxgEmP7y4FVeVzGL_7yeghnNKEqQUIi7I9QLumxUVBRpxTVzdzmS0]--></g></svg>